<svg version="1.1" id="Layer_1" xmlns="http://www.w3.org/2000/svg" xmlns:xlink="http://www.w3.org/1999/xlink" x="0px" y="0px"
	 width="100%" viewBox="0 0 500 500" enable-background="new 0 0 500 500" xml:space="preserve">
<path fill="#000000" opacity="1.000000" stroke="none" 
	d="
M1.000000,397.000000 
	C1.000000,265.044220 1.000000,133.088425 1.000000,1.066314 
	C167.566620,1.066314 334.133270,1.066314 501.000000,1.066314 
	C501.000000,136.021286 501.000000,271.042786 500.659729,406.647217 
	C498.454376,408.207947 496.494446,409.042145 494.745972,410.196655 
	C491.981140,412.022156 489.513794,414.344269 486.633026,415.935730 
	C483.485840,417.674377 479.918640,418.637390 476.700439,420.266327 
	C471.108765,423.096741 465.847412,426.460663 459.081787,426.049500 
	C452.224396,425.632751 450.351166,423.485779 452.661713,416.872864 
	C454.594971,411.339844 456.794189,405.877655 459.245514,400.554443 
	C461.344421,395.996429 463.853271,391.610840 466.448547,387.310577 
	C467.017944,386.367126 468.720184,386.107361 469.900696,385.532745 
	C469.964874,386.681305 470.169312,387.844635 470.050140,388.973846 
	C469.949890,389.924316 469.121368,390.877869 469.228119,391.755463 
	C469.570801,394.572388 469.244354,398.762756 470.896881,399.881653 
	C475.519257,403.011383 480.846039,400.799683 485.177490,398.454895 
	C486.692688,397.634613 486.584351,393.552795 486.940094,390.922852 
	C487.341309,387.957001 487.429901,384.948883 487.654480,381.959167 
	C488.178833,380.709991 487.758759,379.200317 486.816284,378.167206 
	C484.996582,376.172546 482.689514,373.188263 479.963806,375.902283 
	C477.291840,378.562744 474.892303,376.676117 473.692535,375.646698 
	C470.123230,372.584167 466.985809,373.741974 463.904083,375.713440 
	C450.188721,384.487457 445.964355,398.567932 442.918976,413.370972 
	C442.294647,416.405670 440.877197,419.403564 439.241302,422.058594 
	C438.182281,423.777374 436.259338,425.398346 434.370544,426.069061 
	C431.564880,427.065430 428.419830,427.570496 425.482971,427.366638 
	C424.845734,427.322388 423.861694,423.309387 424.131226,421.268829 
	C424.535431,418.208801 425.908295,415.277069 426.866302,412.289825 
	C429.278839,404.767517 431.511780,397.180725 434.182495,389.751251 
	C435.373993,386.436798 435.383606,383.712341 432.959595,380.712494 
	C432.255524,374.857361 431.531067,374.393677 427.540955,377.064026 
	C419.587708,376.069458 412.413879,376.226288 408.465057,382.523895 
	C406.200043,382.035522 404.670746,381.379120 403.194336,381.481934 
	C401.798615,381.579132 400.477386,382.529053 399.089935,383.006714 
	C395.887421,384.109375 394.274078,386.214447 393.929626,389.685730 
	C393.622223,392.783630 392.882172,395.879883 391.975769,398.868530 
	C390.061768,405.179352 381.980377,411.286621 375.080383,411.855865 
	C374.834656,411.876160 374.558502,411.527557 374.009949,411.157593 
	C374.672028,400.090302 383.310364,390.950409 382.874847,379.536682 
	C375.360962,376.956360 372.715454,377.572388 371.128174,382.077332 
	C370.190887,384.737488 369.745819,387.668030 368.354340,390.054230 
	C362.865143,399.467407 357.225616,408.801025 351.337036,417.968353 
	C349.545929,420.756653 346.186615,422.263580 343.155609,420.289246 
	C341.995483,419.533569 341.628357,416.125885 342.215607,414.365692 
	C345.061493,405.835327 348.362122,397.456909 351.484955,389.018494 
	C352.690887,385.759949 353.852814,382.485107 355.126251,378.964813 
	C350.416962,378.964813 346.510101,378.964813 342.630157,378.964813 
	C341.254150,382.378174 339.850464,385.400116 338.803375,388.540955 
	C335.163879,399.458038 331.618073,410.406738 328.101196,421.364105 
	C326.841858,425.287811 328.696045,428.818268 332.742310,429.776764 
	C337.810333,430.977325 342.963074,431.820282 348.066132,432.815002 
	C347.840118,433.743500 347.923706,435.362152 347.157227,436.230408 
	C342.149323,441.903076 339.353760,448.824707 336.302368,455.533722 
	C334.036438,460.515747 332.365570,465.839966 331.113678,471.172394 
	C330.682159,473.010468 331.672089,476.167847 333.121246,477.286591 
	C338.599182,481.515594 349.280273,479.026917 351.942719,472.702026 
	C355.106476,465.186310 357.280121,457.258698 360.020508,449.558594 
	C363.167542,440.715912 363.162048,430.147125 373.063599,424.913513 
	C376.338654,423.182404 379.768219,421.743713 383.127106,420.171326 
	C383.475983,420.571350 383.824860,420.971405 384.173737,421.371429 
	C382.661682,424.954865 381.149597,428.538300 379.497009,432.454742 
	C381.705658,433.020233 383.734802,433.559143 385.773743,434.058105 
	C391.273163,435.403931 393.236511,433.981567 394.064545,428.204498 
	C394.271393,426.761078 394.533752,425.262573 395.124481,423.948486 
	C397.301819,419.105042 400.410126,414.531433 401.720825,409.480743 
	C403.879242,401.163452 408.280792,394.866791 415.348358,390.317322 
	C416.721130,389.433655 418.539825,389.242767 420.152893,388.732361 
	C420.246185,390.758911 420.874695,392.944061 420.330017,394.781525 
	C418.839935,399.808441 416.008301,404.565338 415.265717,409.656372 
	C414.147919,417.319916 414.244690,425.173676 414.036560,432.952240 
	C413.896790,438.177582 415.958252,440.085144 421.256653,439.985413 
	C429.206543,439.835846 436.244904,437.083710 442.864929,432.743195 
	C444.324554,431.786194 446.954865,431.912903 448.815857,432.407257 
	C453.552765,433.665527 458.084045,436.280334 462.841827,436.694244 
	C466.696289,437.029572 471.001160,435.485138 474.673676,433.820282 
	C479.823517,431.485748 484.560150,428.245239 489.496094,425.431824 
	C493.312775,423.256378 497.164093,421.141693 501.000000,419.000000 
	C501.000000,446.315063 501.000000,473.630127 501.000000,500.944916 
	C334.333313,500.944641 167.666656,500.944641 1.000000,500.944641 
	C1.000000,477.904785 1.000000,454.920227 1.403671,431.473358 
	C4.940282,431.633209 8.306384,433.406982 10.857259,429.981750 
	C13.766838,426.074829 15.838886,427.791870 18.797342,430.217285 
	C22.509386,433.260559 26.662281,436.269836 31.134251,437.690460 
	C33.749241,438.521118 37.459942,436.482025 40.492180,435.269836 
	C44.105103,433.825531 47.383221,431.475220 51.051624,430.254242 
	C56.507755,428.438232 61.459908,425.255127 62.785847,420.089325 
	C65.398827,409.909302 64.966339,399.657104 56.861332,391.398071 
	C54.652264,389.147095 52.209282,387.125610 50.033325,385.144196 
	C53.943794,380.296051 57.510605,376.001404 60.938229,371.598389 
	C68.504478,361.879089 67.449562,354.973877 58.849735,349.049408 
	C56.299667,347.292664 53.286358,345.842712 50.284374,345.218506 
	C47.690041,344.679047 43.709717,344.435333 42.252972,345.927032 
	C36.739166,351.573120 29.982674,356.593872 28.467308,365.122742 
	C28.102091,367.178284 27.871922,369.504028 28.463566,371.434631 
	C29.907808,376.147400 32.024635,380.652832 33.503826,385.357086 
	C33.836124,386.413849 32.949356,388.162567 32.131962,389.208282 
	C30.408272,391.413452 28.208958,393.247284 26.489740,395.455353 
	C25.033737,397.325348 23.978619,399.507477 22.569536,401.844269 
	C20.661549,401.502472 18.076729,401.762390 16.507547,400.623230 
	C11.744178,397.165192 6.703826,395.925598 1.000000,397.000000 
M324.963867,120.789276 
	C326.307648,125.549438 328.367493,130.236267 328.863922,135.083221 
	C330.494324,151.002625 327.417542,166.096008 319.427185,180.084869 
	C316.967987,184.390244 317.565491,188.180191 321.184631,191.692001 
	C326.918030,197.255386 332.832886,202.690964 338.022034,208.737534 
	C342.237152,213.649094 347.028656,214.241287 352.082520,211.733398 
	C354.553833,210.507065 356.527740,207.497818 357.842163,204.855469 
	C363.584076,193.312500 368.695221,181.516281 370.043304,168.465607 
	C370.379303,165.212906 371.506165,162.003494 371.545349,158.765411 
	C371.689789,146.834763 371.920746,134.879700 371.289185,122.977867 
	C371.043335,118.344193 367.970917,113.921288 367.267151,109.239853 
	C365.087006,94.738091 357.227905,82.866875 349.197540,71.426872 
	C343.619904,63.480999 335.873322,56.962006 328.625854,50.318146 
	C323.947662,46.029606 318.665619,42.252102 313.197021,39.018791 
	C308.575592,36.286346 303.312561,34.627419 298.304657,32.563354 
	C292.171417,30.035460 286.195221,26.747154 279.808594,25.313341 
	C272.485474,23.669287 264.796265,23.288950 257.248627,23.113699 
	C249.487778,22.933496 241.697662,24.054314 233.935196,23.892904 
	C224.618912,23.699186 216.093994,26.513807 207.700897,29.811611 
	C202.667023,31.789513 198.458618,34.126556 194.235809,28.060188 
	C191.963531,24.795879 187.233734,23.425451 183.598465,25.487705 
	C180.814636,27.066946 177.544159,30.496178 177.283630,33.356979 
	C176.009064,47.353134 175.577438,61.431042 175.046906,75.487564 
	C174.828110,81.285263 177.646469,84.168655 183.361069,83.960060 
	C197.740524,83.435196 212.112823,82.700737 226.482437,81.944511 
	C227.671707,81.881920 228.873444,81.118362 229.976227,80.511276 
	C234.950195,77.773155 233.929794,72.679192 234.168518,68.442169 
	C272.788696,57.376934 310.774750,84.911987 321.190796,113.258987 
	C320.597748,114.758942 319.171539,117.255173 319.560730,117.580627 
	C320.990784,118.776581 323.023376,119.252060 324.963867,120.789276 
M303.819397,204.014420 
	C301.378418,204.343307 298.942841,204.897888 296.495422,204.956039 
	C290.669037,205.094421 284.836823,204.963654 279.007416,205.005539 
	C271.917358,205.056458 267.130951,209.859238 267.026978,216.889389 
	C267.008148,218.161606 266.791565,219.430923 266.662994,220.734879 
	C263.073517,221.183685 259.824860,221.839737 256.557373,221.953003 
	C245.390045,222.340103 234.346283,222.022110 224.073410,216.587494 
	C217.994583,213.371643 210.948990,211.549820 205.626526,207.434708 
	C196.654678,200.498047 189.224014,191.828049 183.399231,181.898529 
	C173.732468,165.419556 173.387863,147.352692 174.023300,129.081146 
	C174.034851,128.748901 173.998291,128.383774 174.120728,128.091125 
	C177.070267,121.040871 179.940720,113.954979 183.043793,106.972549 
	C184.634964,103.392197 184.473145,100.137253 181.783249,97.375343 
	C174.931076,90.339706 168.001053,83.375679 160.951614,76.538246 
	C157.687347,73.372154 149.826370,74.629417 147.760376,78.735100 
	C144.275940,85.659538 141.712387,93.094276 137.787872,99.739365 
	C131.876648,109.748390 131.210632,120.982185 130.287476,131.799652 
	C128.514359,152.577393 130.489868,173.257385 139.147507,192.611649 
	C142.820328,200.822250 146.715240,209.293564 152.301407,216.195969 
	C159.095840,224.591339 167.585800,231.676392 175.723297,238.898987 
	C180.375397,243.028046 185.616318,246.575516 190.915436,249.863831 
	C194.214706,251.911179 198.672623,252.289307 201.630402,254.646469 
	C207.189438,259.076660 214.166763,259.852295 220.296600,261.550354 
	C234.286194,265.425720 249.002075,265.323914 263.606110,265.120361 
	C276.063934,264.946686 287.562531,261.079437 298.684967,256.502625 
	C302.210815,255.051743 303.143250,255.738312 305.029938,257.534332 
	C305.873749,258.337555 306.937592,259.059204 307.434631,260.051727 
	C309.809753,264.794708 314.544647,263.702209 317.439667,262.562592 
	C320.503052,261.356659 324.386047,257.663452 324.670013,254.741699 
	C326.044464,240.598862 326.421753,226.353561 326.951965,212.137100 
	C327.153198,206.741745 324.211090,204.039673 318.763580,204.000275 
	C314.099945,203.966537 309.435852,203.998657 303.819397,204.014420 
M172.118851,413.675018 
	C173.332413,410.167877 174.545990,406.660767 175.691193,403.351196 
	C180.494141,403.351196 185.079651,403.351196 190.817627,403.351196 
	C189.870499,407.154633 188.735046,410.333740 188.351196,413.601196 
	C187.858002,417.799255 186.541580,422.719849 188.117493,426.170105 
	C191.332932,433.209900 205.665970,437.747742 212.089996,433.377594 
	C219.491226,428.342560 226.327667,422.477325 233.890152,416.598969 
	C231.387802,413.148132 229.392365,410.396332 227.299469,407.510132 
	C219.078156,414.613373 212.977661,423.622253 200.739944,424.178680 
	C201.324524,410.060364 203.956879,397.407654 208.706070,385.389923 
	C215.423874,386.364380 222.478165,387.387634 229.769531,388.445282 
	C229.279068,384.703430 228.924866,382.001251 228.624252,379.707794 
	C222.324234,378.781952 216.434753,377.916412 210.336624,377.020233 
	C212.894318,370.569489 215.225159,364.778046 217.450577,358.946381 
	C217.679062,358.347656 217.531006,357.288422 217.124008,356.818573 
	C215.314438,354.729706 205.208359,355.904510 204.252396,358.455170 
	C202.118729,364.148315 200.320786,369.967255 198.478195,375.460236 
	C193.250427,376.346863 187.804245,377.270569 182.474854,378.174438 
	C182.796188,381.450470 183.048477,384.022491 183.290070,386.485504 
	C186.065262,386.485504 188.625061,386.279724 191.122162,386.585693 
	C192.136261,386.709991 193.013901,387.947906 193.953659,388.679108 
	C193.104721,389.715302 192.450302,391.270691 191.365433,391.677094 
	C189.256592,392.467072 186.914124,392.663116 184.654373,393.014771 
	C178.586868,393.958954 178.628281,393.671234 177.858215,387.366669 
	C177.504486,384.470734 176.384872,380.783417 174.291656,379.186493 
	C170.920212,376.614563 166.454712,375.476807 163.261169,374.085846 
	C163.309784,374.076874 164.595978,373.839478 165.882187,373.602081 
	C161.802124,372.705109 157.612473,371.997437 153.817108,372.917023 
	C150.455704,373.731476 147.156967,375.927338 144.490692,378.265930 
	C137.904861,384.042450 130.896393,390.024628 130.129990,399.448395 
	C129.413498,408.258179 130.151337,417.177155 129.935898,426.040436 
	C129.814896,431.018402 133.003204,434.033264 136.700302,434.563690 
	C143.096710,435.481415 149.836823,435.493469 156.212967,434.489471 
	C159.890900,433.910339 164.159073,431.331543 166.325790,428.328278 
	C169.166565,424.390808 170.196503,419.146851 172.118851,413.675018 
M214.957153,182.163605 
	C218.510681,193.629196 238.658066,200.257339 250.475525,189.196976 
	C254.210281,185.701523 260.386627,185.933167 263.324188,181.076157 
	C263.374939,180.992310 263.663574,181.085236 263.804352,181.018204 
	C269.105377,178.493408 274.569519,176.251114 279.646790,173.335327 
	C283.777466,170.963181 287.299286,167.552078 291.348541,165.012161 
	C298.249573,160.683456 302.234406,144.200012 297.682434,137.674438 
	C297.337616,137.180145 296.493530,137.037888 296.138489,136.546371 
	C291.729614,130.443390 284.597473,128.222656 278.652191,124.343529 
	C273.534149,121.004150 268.136078,118.073761 262.746521,115.177032 
	C258.481201,112.884529 254.033432,110.932747 249.687668,108.787109 
	C249.114212,108.503975 248.634430,108.000603 248.163513,107.545219 
	C245.080841,104.564255 241.841904,102.080986 237.109512,102.948769 
	C235.658798,103.214775 234.118164,102.991074 232.618713,102.990768 
	C221.845215,102.988556 213.944702,110.845200 213.953506,121.563057 
	C213.968536,139.889267 213.970657,158.215561 214.040070,176.541565 
	C214.046143,178.144989 214.509491,179.746689 214.957153,182.163605 
M260.602478,396.145325 
	C257.432709,399.317139 256.605499,404.944672 259.418671,409.722473 
	C263.641571,416.894501 266.093781,423.566956 257.629486,429.442963 
	C257.558258,429.492432 257.620636,429.734314 257.619537,429.886383 
	C264.020752,432.772858 264.020752,432.772858 272.289764,427.028687 
	C273.099030,427.759918 273.897736,428.588043 274.801361,429.278992 
	C278.062164,431.772339 281.096039,435.797729 284.689117,436.394806 
	C296.494019,438.356476 306.487030,433.285309 315.543365,426.046448 
	C319.088104,423.213043 320.042419,419.793396 320.152740,415.270416 
	C320.439270,403.523895 318.800842,392.866333 308.183228,385.653259 
	C307.798218,385.391693 307.580933,384.883179 307.289520,384.495117 
	C312.342865,378.541870 319.325562,373.828735 321.079010,365.789642 
	C321.955414,361.771606 322.213409,356.383972 320.190216,353.290710 
	C317.830322,349.682587 312.901611,347.374207 308.640961,345.537933 
	C306.236237,344.501556 302.483124,344.674103 300.148376,345.876617 
	C297.170044,347.410614 295.167694,350.726288 292.469421,352.938324 
	C284.231476,359.691742 284.256042,375.085480 289.425201,381.386444 
	C290.352905,382.517303 290.596954,385.251984 289.875122,386.512085 
	C286.778046,391.918488 283.202148,397.050659 279.832764,402.233490 
	C275.964661,400.590973 272.861908,399.078552 269.623352,397.958923 
	C266.954041,397.036072 264.123840,396.578491 260.602478,396.145325 
M75.913567,407.034668 
	C74.912178,409.695435 73.841614,412.332489 72.920692,415.020813 
	C67.192284,431.743042 61.373634,448.436279 55.877678,465.234924 
	C54.488716,469.480347 54.165371,474.074432 53.311104,478.733154 
	C58.085449,478.733154 61.358624,478.733154 64.250587,478.733154 
	C69.887215,462.308319 75.401314,446.240509 80.918701,430.163147 
	C81.323761,430.303558 81.694801,430.331116 81.923073,430.525940 
	C89.731049,437.189087 102.742065,437.212646 108.566086,429.140289 
	C114.111366,421.454254 118.536491,412.756836 120.055328,403.001801 
	C120.487526,400.225922 121.302116,397.399933 122.523453,394.878937 
	C125.183228,389.388824 120.218346,377.848755 114.205322,377.175964 
	C105.890053,376.245605 97.553848,376.241333 91.597748,383.862915 
	C90.751976,384.945190 89.535088,385.737457 88.450813,386.698669 
	C87.897141,385.821472 87.444748,385.300629 87.211426,384.695404 
	C86.682655,383.323730 86.326042,381.885040 85.784973,380.518951 
	C84.194237,376.502625 81.577339,375.612061 78.159386,378.467255 
	C76.003838,380.267883 71.347809,381.942291 75.839188,386.112366 
	C76.272652,386.514740 75.993584,387.717194 75.993942,388.548248 
	C75.996468,394.423767 75.985588,400.299286 75.913567,407.034668 
M213.000000,135.527512 
	C213.000000,131.796066 213.000000,128.064621 213.000000,124.333183 
	C212.762711,124.347916 212.525406,124.362640 212.288116,124.377365 
	C212.288116,140.860794 212.288116,157.344238 212.288116,173.827667 
	C212.525406,173.828125 212.762711,173.828568 213.000000,173.829010 
	C213.000000,161.392258 213.000000,148.955490 213.000000,135.527512 
z"/>
<path fill="#1DB954" opacity="1.000000" stroke="none" 
	d="
M501.000000,418.539368 
	C497.164093,421.141693 493.312775,423.256378 489.496094,425.431824 
	C484.560150,428.245239 479.823517,431.485748 474.673676,433.820282 
	C471.001160,435.485138 466.696289,437.029572 462.841827,436.694244 
	C458.084045,436.280334 453.552765,433.665527 448.815857,432.407257 
	C446.954865,431.912903 444.324554,431.786194 442.864929,432.743195 
	C436.244904,437.083710 429.206543,439.835846 421.256653,439.985413 
	C415.958252,440.085144 413.896790,438.177582 414.036560,432.952240 
	C414.244690,425.173676 414.147919,417.319916 415.265717,409.656372 
	C416.008301,404.565338 418.839935,399.808441 420.330017,394.781525 
	C420.874695,392.944061 420.246185,390.758911 420.152893,388.732361 
	C418.539825,389.242767 416.721130,389.433655 415.348358,390.317322 
	C408.280792,394.866791 403.879242,401.163452 401.720825,409.480743 
	C400.410126,414.531433 397.301819,419.105042 395.124481,423.948486 
	C394.533752,425.262573 394.271393,426.761078 394.064545,428.204498 
	C393.236511,433.981567 391.273163,435.403931 385.773743,434.058105 
	C383.734802,433.559143 381.705658,433.020233 379.497009,432.454742 
	C381.149597,428.538300 382.661682,424.954865 384.173737,421.371429 
	C383.824860,420.971405 383.475983,420.571350 383.127106,420.171326 
	C379.768219,421.743713 376.338654,423.182404 373.063599,424.913513 
	C363.162048,430.147125 363.167542,440.715912 360.020508,449.558594 
	C357.280121,457.258698 355.106476,465.186310 351.942719,472.702026 
	C349.280273,479.026917 338.599182,481.515594 333.121246,477.286591 
	C331.672089,476.167847 330.682159,473.010468 331.113678,471.172394 
	C332.365570,465.839966 334.036438,460.515747 336.302368,455.533722 
	C339.353760,448.824707 342.149323,441.903076 347.157227,436.230408 
	C347.923706,435.362152 347.840118,433.743500 348.066132,432.815002 
	C342.963074,431.820282 337.810333,430.977325 332.742310,429.776764 
	C328.696045,428.818268 326.841858,425.287811 328.101196,421.364105 
	C331.618073,410.406738 335.163879,399.458038 338.803375,388.540955 
	C339.850464,385.400116 341.254150,382.378174 342.630157,378.964813 
	C346.510101,378.964813 350.416962,378.964813 355.126251,378.964813 
	C353.852814,382.485107 352.690887,385.759949 351.484955,389.018494 
	C348.362122,397.456909 345.061493,405.835327 342.215607,414.365692 
	C341.628357,416.125885 341.995483,419.533569 343.155609,420.289246 
	C346.186615,422.263580 349.545929,420.756653 351.337036,417.968353 
	C357.225616,408.801025 362.865143,399.467407 368.354340,390.054230 
	C369.745819,387.668030 370.190887,384.737488 371.128174,382.077332 
	C372.715454,377.572388 375.360962,376.956360 382.874847,379.536682 
	C383.310364,390.950409 374.672028,400.090302 374.009949,411.157593 
	C374.558502,411.527557 374.834656,411.876160 375.080383,411.855865 
	C381.980377,411.286621 390.061768,405.179352 391.975769,398.868530 
	C392.882172,395.879883 393.622223,392.783630 393.929626,389.685730 
	C394.274078,386.214447 395.887421,384.109375 399.089935,383.006714 
	C400.477386,382.529053 401.798615,381.579132 403.194336,381.481934 
	C404.670746,381.379120 406.200043,382.035522 408.465057,382.523895 
	C412.413879,376.226288 419.587708,376.069458 427.575531,377.415710 
	C429.671570,378.912659 431.314392,380.013977 432.957214,381.115265 
	C435.383606,383.712341 435.373993,386.436798 434.182495,389.751251 
	C431.511780,397.180725 429.278839,404.767517 426.866302,412.289825 
	C425.908295,415.277069 424.535431,418.208801 424.131226,421.268829 
	C423.861694,423.309387 424.845734,427.322388 425.482971,427.366638 
	C428.419830,427.570496 431.564880,427.065430 434.370544,426.069061 
	C436.259338,425.398346 438.182281,423.777374 439.241302,422.058594 
	C440.877197,419.403564 442.294647,416.405670 442.918976,413.370972 
	C445.964355,398.567932 450.188721,384.487457 463.904083,375.713440 
	C466.985809,373.741974 470.123230,372.584167 473.692535,375.646698 
	C474.892303,376.676117 477.291840,378.562744 479.963806,375.902283 
	C482.689514,373.188263 484.996582,376.172546 486.816284,378.167206 
	C487.758759,379.200317 488.178833,380.709991 487.654480,381.959167 
	C487.429901,384.948883 487.341309,387.957001 486.940094,390.922852 
	C486.584351,393.552795 486.692688,397.634613 485.177490,398.454895 
	C480.846039,400.799683 475.519257,403.011383 470.896881,399.881653 
	C469.244354,398.762756 469.570801,394.572388 469.228119,391.755463 
	C469.121368,390.877869 469.949890,389.924316 470.050140,388.973846 
	C470.169312,387.844635 469.964874,386.681305 469.900696,385.532745 
	C468.720184,386.107361 467.017944,386.367126 466.448547,387.310577 
	C463.853271,391.610840 461.344421,395.996429 459.245514,400.554443 
	C456.794189,405.877655 454.594971,411.339844 452.661713,416.872864 
	C450.351166,423.485779 452.224396,425.632751 459.081787,426.049500 
	C465.847412,426.460663 471.108765,423.096741 476.700439,420.266327 
	C479.918640,418.637390 483.485840,417.674377 486.633026,415.935730 
	C489.513794,414.344269 491.981140,412.022156 494.745972,410.196655 
	C496.494446,409.042145 498.454376,408.207947 500.659729,407.115051 
	C501.000000,410.692902 501.000000,414.385834 501.000000,418.539368 
z"/>
<path fill="#1CB954" opacity="1.000000" stroke="none" 
	d="
M1.000000,397.463196 
	C6.703826,395.925598 11.744178,397.165192 16.507547,400.623230 
	C18.076729,401.762390 20.661549,401.502472 22.569536,401.844269 
	C23.978619,399.507477 25.033737,397.325348 26.489740,395.455353 
	C28.208958,393.247284 30.408272,391.413452 32.131962,389.208282 
	C32.949356,388.162567 33.836124,386.413849 33.503826,385.357086 
	C32.024635,380.652832 29.907808,376.147400 28.463566,371.434631 
	C27.871922,369.504028 28.102091,367.178284 28.467308,365.122742 
	C29.982674,356.593872 36.739166,351.573120 42.252972,345.927032 
	C43.709717,344.435333 47.690041,344.679047 50.284374,345.218506 
	C53.286358,345.842712 56.299667,347.292664 58.849735,349.049408 
	C67.449562,354.973877 68.504478,361.879089 60.938229,371.598389 
	C57.510605,376.001404 53.943794,380.296051 50.033325,385.144196 
	C52.209282,387.125610 54.652264,389.147095 56.861332,391.398071 
	C64.966339,399.657104 65.398827,409.909302 62.785847,420.089325 
	C61.459908,425.255127 56.507755,428.438232 51.051624,430.254242 
	C47.383221,431.475220 44.105103,433.825531 40.492180,435.269836 
	C37.459942,436.482025 33.749241,438.521118 31.134251,437.690460 
	C26.662281,436.269836 22.509386,433.260559 18.797342,430.217285 
	C15.838886,427.791870 13.766838,426.074829 10.857259,429.981750 
	C8.306384,433.406982 4.940282,431.633209 1.403671,431.005493 
	C1.000000,429.933319 1.000000,428.866669 1.356623,427.411926 
	C8.096639,422.588470 7.750599,414.329193 1.000000,410.000000 
	C1.000000,405.975464 1.000000,401.950897 1.000000,397.463196 
M37.144405,416.976074 
	C34.280788,416.400726 31.435278,415.550476 28.546307,415.360229 
	C26.983791,415.257355 25.145296,415.990997 23.822462,416.910187 
	C23.075413,417.429260 22.519621,419.380310 22.909529,420.188599 
	C25.210453,424.958527 35.208042,427.195343 39.572964,424.203735 
	C43.028595,421.835358 46.946278,420.009491 49.984383,417.210632 
	C51.947296,415.402283 54.386040,411.538116 53.663952,409.875153 
	C51.588707,405.095947 48.112461,400.893982 44.927433,396.660278 
	C44.432140,396.001892 41.879868,395.818420 41.464100,396.347229 
	C38.808289,399.725220 34.372490,402.268860 35.072311,406.386383 
	C37.598194,408.284637 40.476398,409.394745 40.665871,410.854004 
	C40.907978,412.718658 38.980831,414.864960 37.144405,416.976074 
M39.998672,366.682007 
	C40.018433,368.003387 39.794567,369.386200 40.109058,370.633270 
	C40.748627,373.169281 42.762577,374.076752 44.299252,371.931458 
	C47.149570,367.952179 49.487667,363.582489 51.747940,359.224426 
	C52.186710,358.378418 51.667801,356.210419 50.931553,355.780243 
	C49.912933,355.185059 47.567322,355.089600 47.014004,355.772278 
	C44.446423,358.940063 42.301601,362.450562 39.998672,366.682007 
z"/>
<path fill="#000000" opacity="1.000000" stroke="none" 
	d="
M1.000000,410.467590 
	C7.750599,414.329193 8.096639,422.588470 1.356623,427.011902 
	C1.000000,421.645081 1.000000,416.290131 1.000000,410.467590 
z"/>
<path fill="#1DB954" opacity="1.000000" stroke="none" 
	d="
M304.295654,204.008041 
	C309.435852,203.998657 314.099945,203.966537 318.763580,204.000275 
	C324.211090,204.039673 327.153198,206.741745 326.951965,212.137100 
	C326.421753,226.353561 326.044464,240.598862 324.670013,254.741699 
	C324.386047,257.663452 320.503052,261.356659 317.439667,262.562592 
	C314.544647,263.702209 309.809753,264.794708 307.434631,260.051727 
	C306.937592,259.059204 305.873749,258.337555 305.029938,257.534332 
	C303.143250,255.738312 302.210815,255.051743 298.684967,256.502625 
	C287.562531,261.079437 276.063934,264.946686 263.606110,265.120361 
	C249.002075,265.323914 234.286194,265.425720 220.296600,261.550354 
	C214.166763,259.852295 207.189438,259.076660 201.630402,254.646469 
	C198.672623,252.289307 194.214706,251.911179 190.915436,249.863831 
	C185.616318,246.575516 180.375397,243.028046 175.723297,238.898987 
	C167.585800,231.676392 159.095840,224.591339 152.301407,216.195969 
	C146.715240,209.293564 142.820328,200.822250 139.147507,192.611649 
	C130.489868,173.257385 128.514359,152.577393 130.287476,131.799652 
	C131.210632,120.982185 131.876648,109.748390 137.787872,99.739365 
	C141.712387,93.094276 144.275940,85.659538 147.760376,78.735100 
	C149.826370,74.629417 157.687347,73.372154 160.951614,76.538246 
	C168.001053,83.375679 174.931076,90.339706 181.783249,97.375343 
	C184.473145,100.137253 184.634964,103.392197 183.043793,106.972549 
	C179.940720,113.954979 177.070267,121.040871 174.120728,128.091125 
	C173.998291,128.383774 174.034851,128.748901 174.023300,129.081146 
	C173.387863,147.352692 173.732468,165.419556 183.399231,181.898529 
	C189.224014,191.828049 196.654678,200.498047 205.626526,207.434708 
	C210.948990,211.549820 217.994583,213.371643 224.073410,216.587494 
	C234.346283,222.022110 245.390045,222.340103 256.557373,221.953003 
	C259.824860,221.839737 263.073517,221.183685 266.662994,220.734879 
	C266.791565,219.430923 267.008148,218.161606 267.026978,216.889389 
	C267.130951,209.859238 271.917358,205.056458 279.007416,205.005539 
	C284.836823,204.963654 290.669037,205.094421 296.495422,204.956039 
	C298.942841,204.897888 301.378418,204.343307 304.295654,204.008041 
M180.478165,225.710251 
	C185.801880,229.127594 191.002365,232.760406 196.486786,235.896713 
	C201.194290,238.588760 206.186096,240.801010 211.124664,243.067459 
	C218.091690,246.264832 225.448410,247.879349 232.917404,249.663712 
	C242.435806,251.937668 251.616318,252.292984 261.007568,251.402512 
	C266.547607,250.877213 271.997375,249.262268 277.445038,247.958710 
	C280.177124,247.304947 282.780029,245.652817 285.500092,245.500519 
	C291.636749,245.156921 295.317169,238.477722 301.860687,239.553787 
	C303.723724,239.860138 305.631683,240.253067 307.485687,240.124634 
	C308.671661,240.042480 310.719604,239.186127 310.801636,238.490585 
	C311.419525,233.252045 311.897491,227.964478 311.839752,222.698563 
	C311.822418,221.117813 309.970520,219.557190 309.082153,218.178375 
	C309.915344,218.057678 311.403107,217.842133 312.890869,217.626602 
	C312.855469,217.384048 312.820038,217.141510 312.784637,216.898956 
	C304.091339,217.597931 295.398041,218.296921 285.498291,219.092896 
	C290.181244,222.730438 289.332947,225.933182 286.224365,228.019318 
	C282.963379,230.207718 279.186310,232.114365 275.377228,232.907898 
	C263.613129,235.358688 251.639343,235.935150 239.658279,234.904953 
	C234.787582,234.486160 229.744583,234.045364 225.185425,232.453445 
	C215.871338,229.201187 207.014526,225.194595 198.753525,219.281342 
	C182.835068,207.886932 170.320663,194.118057 164.355988,175.395172 
	C160.480392,163.229813 159.257309,150.597672 159.715393,137.610519 
	C160.107010,126.507660 161.813995,116.080818 166.406128,106.046173 
	C166.774246,105.241783 167.022125,103.771698 166.585388,103.307243 
	C163.373093,99.890923 159.972229,96.651917 155.846970,92.584213 
	C153.498535,98.333672 151.491531,102.814110 149.843750,107.422989 
	C148.600006,110.901802 147.693115,114.516380 146.854767,118.121338 
	C145.477249,124.044800 143.472076,129.970398 143.181229,135.965439 
	C142.685532,146.182510 142.848740,156.318405 145.782440,166.520248 
	C149.194168,178.384415 153.173645,189.891479 160.187347,199.945694 
	C166.325485,208.744781 173.645767,216.719254 180.478165,225.710251 
z"/>
<path fill="#1DB954" opacity="1.000000" stroke="none" 
	d="
M321.831879,113.002045 
	C310.774750,84.911987 272.788696,57.376934 234.168518,68.442169 
	C233.929794,72.679192 234.950195,77.773155 229.976227,80.511276 
	C228.873444,81.118362 227.671707,81.881920 226.482437,81.944511 
	C212.112823,82.700737 197.740524,83.435196 183.361069,83.960060 
	C177.646469,84.168655 174.828110,81.285263 175.046906,75.487564 
	C175.577438,61.431042 176.009064,47.353134 177.283630,33.356979 
	C177.544159,30.496178 180.814636,27.066946 183.598465,25.487705 
	C187.233734,23.425451 191.963531,24.795879 194.235809,28.060188 
	C198.458618,34.126556 202.667023,31.789513 207.700897,29.811611 
	C216.093994,26.513807 224.618912,23.699186 233.935196,23.892904 
	C241.697662,24.054314 249.487778,22.933496 257.248627,23.113699 
	C264.796265,23.288950 272.485474,23.669287 279.808594,25.313341 
	C286.195221,26.747154 292.171417,30.035460 298.304657,32.563354 
	C303.312561,34.627419 308.575592,36.286346 313.197021,39.018791 
	C318.665619,42.252102 323.947662,46.029606 328.625854,50.318146 
	C335.873322,56.962006 343.619904,63.480999 349.197540,71.426872 
	C357.227905,82.866875 365.087006,94.738091 367.267151,109.239853 
	C367.970917,113.921288 371.043335,118.344193 371.289185,122.977867 
	C371.920746,134.879700 371.689789,146.834763 371.545349,158.765411 
	C371.506165,162.003494 370.379303,165.212906 370.043304,168.465607 
	C368.695221,181.516281 363.584076,193.312500 357.842163,204.855469 
	C356.527740,207.497818 354.553833,210.507065 352.082520,211.733398 
	C347.028656,214.241287 342.237152,213.649094 338.022034,208.737534 
	C332.832886,202.690964 326.918030,197.255386 321.184631,191.692001 
	C317.565491,188.180191 316.967987,184.390244 319.427185,180.084869 
	C327.417542,166.096008 330.494324,151.002625 328.863922,135.083221 
	C328.367493,130.236267 326.307648,125.549438 324.958252,120.015923 
	C323.912384,117.162392 322.872131,115.082214 321.831879,113.002045 
M308.467682,72.158585 
	C313.250458,76.785446 318.733337,80.893318 322.643097,86.167358 
	C327.810364,93.137733 332.293121,100.761299 336.020081,108.603127 
	C338.567810,113.963730 339.696533,120.108086 340.777405,126.026634 
	C341.925812,132.315186 342.967163,138.767471 342.815521,145.118652 
	C342.517456,157.599442 340.516968,169.879364 335.805634,181.601608 
	C335.332550,182.778625 335.696869,184.860977 336.495422,185.875381 
	C339.056427,189.128571 342.003906,192.077530 345.279938,195.667313 
	C348.821777,187.759903 352.534027,181.068237 354.876801,173.927292 
	C360.732941,156.077316 360.466064,137.785873 355.852264,119.803566 
	C353.813293,111.856720 348.891998,104.692497 346.263580,96.843346 
	C342.645966,86.040321 335.263428,77.841194 327.954468,69.888405 
	C322.243347,63.674232 314.593140,59.197803 307.627197,54.196224 
	C302.667114,50.634834 297.741669,46.713234 292.204712,44.347076 
	C285.456299,41.463219 278.182678,39.546368 270.958710,38.094231 
	C257.582550,35.405396 244.313721,34.742580 230.735001,38.680466 
	C223.321274,40.830482 215.868576,42.707401 208.697433,45.625561 
	C206.757751,46.414879 203.900238,46.083466 202.720718,47.395905 
	C198.993271,51.543446 196.245651,49.710175 193.241074,46.785957 
	C192.512314,46.076691 191.521759,45.636395 190.001480,44.651054 
	C190.001480,51.589451 190.220367,57.725121 189.930786,63.836697 
	C189.707520,68.548523 192.038696,70.111359 196.174042,69.976265 
	C202.396301,69.772995 208.614441,69.443245 214.839661,69.167023 
	C214.056396,67.915054 213.078064,67.065651 213.055191,66.191277 
	C212.955292,62.370850 214.657333,59.444252 218.380981,58.233673 
	C222.294571,56.961346 226.266891,55.711403 230.311081,55.033611 
	C237.610596,53.810242 245.082153,51.778069 252.300003,52.355785 
	C261.857666,53.120773 271.394928,54.386765 280.890472,57.388157 
	C291.117310,60.620712 299.417267,66.101799 308.467682,72.158585 
z"/>
<path fill="#1CB954" opacity="1.000000" stroke="none" 
	d="
M172.062073,414.069916 
	C170.196503,419.146851 169.166565,424.390808 166.325790,428.328278 
	C164.159073,431.331543 159.890900,433.910339 156.212967,434.489471 
	C149.836823,435.493469 143.096710,435.481415 136.700302,434.563690 
	C133.003204,434.033264 129.814896,431.018402 129.935898,426.040436 
	C130.151337,417.177155 129.413498,408.258179 130.129990,399.448395 
	C130.896393,390.024628 137.904861,384.042450 144.490692,378.265930 
	C147.156967,375.927338 150.455704,373.731476 153.817108,372.917023 
	C157.612473,371.997437 161.802124,372.705109 165.882187,373.602081 
	C164.595978,373.839478 163.309784,374.076874 163.261169,374.085846 
	C166.454712,375.476807 170.920212,376.614563 174.291656,379.186493 
	C176.384872,380.783417 177.504486,384.470734 177.858215,387.366669 
	C178.628281,393.671234 178.586868,393.958954 184.654373,393.014771 
	C186.914124,392.663116 189.256592,392.467072 191.365433,391.677094 
	C192.450302,391.270691 193.104721,389.715302 193.953644,388.679108 
	C193.013901,387.947906 192.136261,386.709991 191.122162,386.585693 
	C188.625061,386.279724 186.065262,386.485504 183.290070,386.485504 
	C183.048477,384.022491 182.796188,381.450470 182.474854,378.174438 
	C187.804245,377.270569 193.250427,376.346863 198.478195,375.460236 
	C200.320786,369.967255 202.118729,364.148315 204.252396,358.455170 
	C205.208359,355.904510 215.314438,354.729706 217.124008,356.818573 
	C217.531006,357.288422 217.679062,358.347656 217.450577,358.946381 
	C215.225159,364.778046 212.894318,370.569489 210.336624,377.020233 
	C216.434753,377.916412 222.324234,378.781952 228.624252,379.707794 
	C228.924866,382.001251 229.279068,384.703430 229.769531,388.445282 
	C222.478165,387.387634 215.423874,386.364380 208.706070,385.389923 
	C203.956879,397.407654 201.324524,410.060364 200.739944,424.178680 
	C212.977661,423.622253 219.078156,414.613373 227.299469,407.510132 
	C229.392365,410.396332 231.387802,413.148132 233.890152,416.598969 
	C226.327667,422.477325 219.491226,428.342560 212.089996,433.377594 
	C205.665970,437.747742 191.332932,433.209900 188.117493,426.170105 
	C186.541580,422.719849 187.858002,417.799255 188.351196,413.601196 
	C188.735046,410.333740 189.870499,407.154633 190.817627,403.351196 
	C185.079651,403.351196 180.494141,403.351196 175.691193,403.351196 
	C174.545990,406.660767 173.332413,410.167877 172.062073,414.069916 
M158.966965,417.067749 
	C160.278305,413.047913 161.850311,409.087494 162.785950,404.982025 
	C163.223465,403.062256 163.100067,399.518433 162.084641,399.012848 
	C156.550934,396.257538 155.258926,390.494019 151.981750,385.620087 
	C142.030869,394.856384 137.610443,405.873169 139.323105,418.858063 
	C139.666077,421.458435 142.906967,424.942749 145.496078,425.710052 
	C150.471893,427.184662 154.588638,424.345978 156.601532,420.020233 
	C157.017639,419.126068 157.957687,418.475708 158.966965,417.067749 
z"/>
<path fill="#1CB754" opacity="1.000000" stroke="none" 
	d="
M214.858795,181.756393 
	C214.509491,179.746689 214.046143,178.144989 214.040070,176.541565 
	C213.970657,158.215561 213.968536,139.889267 213.953506,121.563057 
	C213.944702,110.845200 221.845215,102.988556 232.618713,102.990768 
	C234.118164,102.991074 235.658798,103.214775 237.109512,102.948769 
	C241.841904,102.080986 245.080841,104.564255 248.163513,107.545219 
	C248.634430,108.000603 249.114212,108.503975 249.687668,108.787109 
	C254.033432,110.932747 258.481201,112.884529 262.746521,115.177032 
	C268.136078,118.073761 273.534149,121.004150 278.652191,124.343529 
	C284.597473,128.222656 291.729614,130.443390 296.138489,136.546371 
	C296.493530,137.037888 297.337616,137.180145 297.682434,137.674438 
	C302.234406,144.200012 298.249573,160.683456 291.348541,165.012161 
	C287.299286,167.552078 283.777466,170.963181 279.646790,173.335327 
	C274.569519,176.251114 269.105377,178.493408 263.804352,181.018204 
	C263.663574,181.085236 263.374939,180.992310 263.324188,181.076157 
	C260.386627,185.933167 254.210281,185.701523 250.475525,189.196976 
	C238.658066,200.257339 218.510681,193.629196 214.858795,181.756393 
M228.259445,121.556946 
	C228.180649,138.979370 228.090851,156.401779 228.064087,173.824280 
	C228.063034,174.507172 228.664444,175.190994 229.396942,175.958267 
	C229.396942,175.958267 229.807205,176.049255 229.944305,176.844208 
	C231.281494,177.896667 232.879166,180.046799 233.908646,179.802521 
	C237.467148,178.958084 240.990448,177.583389 244.227005,175.850113 
	C249.620071,172.961945 254.722748,169.537109 260.054993,166.528412 
	C266.491608,162.896606 273.145599,159.639389 279.481995,155.846588 
	C281.657837,154.544174 283.762878,152.381439 284.758331,150.111053 
	C285.417786,148.606995 284.711151,145.244507 283.465729,144.389420 
	C278.832306,141.208130 273.734283,138.699402 268.782898,135.988876 
	C267.782928,135.441467 266.566406,135.265762 265.612915,134.661301 
	C261.117584,131.811417 256.755280,128.745407 252.198090,126.001312 
	C247.915771,123.422737 243.518295,121.009247 239.031342,118.808876 
	C237.080994,117.852432 234.744614,117.110497 232.653259,117.258186 
	C231.622787,117.330963 230.750870,119.648834 229.397644,121.041679 
	C229.397644,121.041679 228.986404,121.124847 228.259445,121.556946 
z"/>
<path fill="#1CB854" opacity="1.000000" stroke="none" 
	d="
M260.983704,396.030029 
	C264.123840,396.578491 266.954041,397.036072 269.623352,397.958923 
	C272.861908,399.078552 275.964661,400.590973 279.832764,402.233490 
	C283.202148,397.050659 286.778046,391.918488 289.875122,386.512085 
	C290.596954,385.251984 290.352905,382.517303 289.425201,381.386444 
	C284.256042,375.085480 284.231476,359.691742 292.469421,352.938324 
	C295.167694,350.726288 297.170044,347.410614 300.148376,345.876617 
	C302.483124,344.674103 306.236237,344.501556 308.640961,345.537933 
	C312.901611,347.374207 317.830322,349.682587 320.190216,353.290710 
	C322.213409,356.383972 321.955414,361.771606 321.079010,365.789642 
	C319.325562,373.828735 312.342865,378.541870 307.289520,384.495117 
	C307.580933,384.883179 307.798218,385.391693 308.183228,385.653259 
	C318.800842,392.866333 320.439270,403.523895 320.152740,415.270416 
	C320.042419,419.793396 319.088104,423.213043 315.543365,426.046448 
	C306.487030,433.285309 296.494019,438.356476 284.689117,436.394806 
	C281.096039,435.797729 278.062164,431.772339 274.801361,429.278992 
	C273.897736,428.588043 273.099030,427.759918 272.289764,427.028687 
	C264.020752,432.772858 264.020752,432.772858 257.620087,429.886383 
	C257.620636,429.734314 257.558258,429.492432 257.629486,429.442963 
	C266.093781,423.566956 263.641571,416.894501 259.418671,409.722473 
	C256.605499,404.944672 257.432709,399.317139 260.983704,396.030029 
M292.255707,404.885101 
	C292.668488,405.909668 292.799225,407.361084 293.557831,407.862427 
	C294.808502,408.688965 296.465118,408.901306 297.920837,409.363068 
	C295.580261,417.893616 294.589661,418.711090 286.904053,415.786896 
	C281.994324,413.918915 281.316437,417.345428 279.556091,419.589478 
	C281.461975,421.164001 282.949921,422.600739 284.634857,423.748260 
	C290.992676,428.078156 291.935425,428.686859 297.912384,423.338562 
	C299.063599,422.308411 300.680756,421.817688 302.011902,420.966949 
	C309.642609,416.090363 313.008209,413.011810 309.119019,406.529968 
	C308.045746,404.741180 306.975220,402.934692 305.723511,401.271759 
	C300.317444,394.089539 298.033264,394.235992 293.645691,402.000061 
	C293.215210,402.761841 293.069733,403.684723 292.255707,404.885101 
M308.017181,358.524506 
	C307.386322,354.419220 306.297943,353.938751 303.257385,356.207520 
	C297.430115,360.555542 297.140533,366.372803 298.480652,372.774017 
	C302.523224,371.792908 307.521210,364.654053 308.017181,358.524506 
z"/>
<path fill="#1DB954" opacity="1.000000" stroke="none" 
	d="
M75.946274,406.604736 
	C75.985588,400.299286 75.996468,394.423767 75.993942,388.548248 
	C75.993584,387.717194 76.272652,386.514740 75.839188,386.112366 
	C71.347809,381.942291 76.003838,380.267883 78.159386,378.467255 
	C81.577339,375.612061 84.194237,376.502625 85.784973,380.518951 
	C86.326042,381.885040 86.682655,383.323730 87.211426,384.695404 
	C87.444748,385.300629 87.897141,385.821472 88.450813,386.698669 
	C89.535088,385.737457 90.751976,384.945190 91.597748,383.862915 
	C97.553848,376.241333 105.890053,376.245605 114.205322,377.175964 
	C120.218346,377.848755 125.183228,389.388824 122.523453,394.878937 
	C121.302116,397.399933 120.487526,400.225922 120.055328,403.001801 
	C118.536491,412.756836 114.111366,421.454254 108.566086,429.140289 
	C102.742065,437.212646 89.731049,437.189087 81.923073,430.525940 
	C81.694801,430.331116 81.323761,430.303558 80.918701,430.163147 
	C75.401314,446.240509 69.887215,462.308319 64.250587,478.733154 
	C61.358624,478.733154 58.085449,478.733154 53.311104,478.733154 
	C54.165371,474.074432 54.488716,469.480347 55.877678,465.234924 
	C61.373634,448.436279 67.192284,431.743042 72.920692,415.020813 
	C73.841614,412.332489 74.912178,409.695435 75.946274,406.604736 
M86.027496,416.463196 
	C87.425308,418.879364 88.595879,421.468628 90.273666,423.671600 
	C92.852379,427.057617 96.362869,427.036865 98.187454,423.183685 
	C102.405258,414.276550 106.350029,405.206818 109.730988,395.956482 
	C110.776299,393.096527 109.645706,389.441223 109.499023,385.848114 
	C99.372368,389.364532 98.501656,388.947876 92.693573,396.329468 
	C90.198105,399.500977 89.422691,404.071777 88.062508,408.073700 
	C87.226639,410.533020 86.762970,413.118805 86.027496,416.463196 
z"/>
<path fill="#00FF00" opacity="1.000000" stroke="none" 
	d="
M213.000000,136.023132 
	C213.000000,148.955490 213.000000,161.392258 213.000000,173.829010 
	C212.762711,173.828568 212.525406,173.828125 212.288116,173.827667 
	C212.288116,157.344238 212.288116,140.860794 212.288116,124.377365 
	C212.525406,124.362640 212.762711,124.347916 213.000000,124.333183 
	C213.000000,128.064621 213.000000,131.796066 213.000000,136.023132 
z"/>
<path fill="#000000" opacity="1.000000" stroke="none" 
	d="
M321.511353,113.130516 
	C322.872131,115.082214 323.912384,117.162392 324.890930,119.620621 
	C323.023376,119.252060 320.990784,118.776581 319.560730,117.580627 
	C319.171539,117.255173 320.597748,114.758942 321.511353,113.130516 
z"/>
<path fill="#000000" opacity="1.000000" stroke="none" 
	d="
M432.959595,380.712494 
	C431.314392,380.013977 429.671570,378.912659 427.994202,377.459656 
	C431.531067,374.393677 432.255524,374.857361 432.959595,380.712494 
z"/>
<path fill="#000100" opacity="1.000000" stroke="none" 
	d="
M37.566494,416.932983 
	C38.980831,414.864960 40.907978,412.718658 40.665871,410.854004 
	C40.476398,409.394745 37.598194,408.284637 35.072311,406.386383 
	C34.372490,402.268860 38.808289,399.725220 41.464100,396.347229 
	C41.879868,395.818420 44.432140,396.001892 44.927433,396.660278 
	C48.112461,400.893982 51.588707,405.095947 53.663952,409.875153 
	C54.386040,411.538116 51.947296,415.402283 49.984383,417.210632 
	C46.946278,420.009491 43.028595,421.835358 39.572964,424.203735 
	C35.208042,427.195343 25.210453,424.958527 22.909529,420.188599 
	C22.519621,419.380310 23.075413,417.429260 23.822462,416.910187 
	C25.145296,415.990997 26.983791,415.257355 28.546307,415.360229 
	C31.435278,415.550476 34.280788,416.400726 37.566494,416.932983 
z"/>
<path fill="#000000" opacity="1.000000" stroke="none" 
	d="
M40.002052,366.260193 
	C42.301601,362.450562 44.446423,358.940063 47.014004,355.772278 
	C47.567322,355.089600 49.912933,355.185059 50.931553,355.780243 
	C51.667801,356.210419 52.186710,358.378418 51.747940,359.224426 
	C49.487667,363.582489 47.149570,367.952179 44.299252,371.931458 
	C42.762577,374.076752 40.748627,373.169281 40.109058,370.633270 
	C39.794567,369.386200 40.018433,368.003387 40.002052,366.260193 
z"/>
<path fill="#000000" opacity="1.000000" stroke="none" 
	d="
M180.460999,225.384125 
	C173.645767,216.719254 166.325485,208.744781 160.187347,199.945694 
	C153.173645,189.891479 149.194168,178.384415 145.782440,166.520248 
	C142.848740,156.318405 142.685532,146.182510 143.181229,135.965439 
	C143.472076,129.970398 145.477249,124.044800 146.854767,118.121338 
	C147.693115,114.516380 148.600006,110.901802 149.843750,107.422989 
	C151.491531,102.814110 153.498535,98.333672 155.846970,92.584213 
	C159.972229,96.651917 163.373093,99.890923 166.585388,103.307243 
	C167.022125,103.771698 166.774246,105.241783 166.406128,106.046173 
	C161.813995,116.080818 160.107010,126.507660 159.715393,137.610519 
	C159.257309,150.597672 160.480392,163.229813 164.355988,175.395172 
	C170.320663,194.118057 182.835068,207.886932 198.753525,219.281342 
	C207.014526,225.194595 215.871338,229.201187 225.185425,232.453445 
	C229.744583,234.045364 234.787582,234.486160 239.658279,234.904953 
	C251.639343,235.935150 263.613129,235.358688 275.377228,232.907898 
	C279.186310,232.114365 282.963379,230.207718 286.224365,228.019318 
	C289.332947,225.933182 290.181244,222.730438 285.498291,219.092896 
	C295.398041,218.296921 304.091339,217.597931 312.784637,216.898956 
	C312.820038,217.141510 312.855469,217.384048 312.890869,217.626602 
	C311.403107,217.842133 309.915344,218.057678 309.082153,218.178375 
	C309.970520,219.557190 311.822418,221.117813 311.839752,222.698563 
	C311.897491,227.964478 311.419525,233.252045 310.801636,238.490585 
	C310.719604,239.186127 308.671661,240.042480 307.485687,240.124634 
	C305.631683,240.253067 303.723724,239.860138 301.860687,239.553787 
	C295.317169,238.477722 291.636749,245.156921 285.500092,245.500519 
	C282.780029,245.652817 280.177124,247.304947 277.445038,247.958710 
	C271.997375,249.262268 266.547607,250.877213 261.007568,251.402512 
	C251.616318,252.292984 242.435806,251.937668 232.917404,249.663712 
	C225.448410,247.879349 218.091690,246.264832 211.124664,243.067459 
	C206.186096,240.801010 201.194290,238.588760 196.486786,235.896713 
	C191.002365,232.760406 185.801880,229.127594 180.460999,225.384125 
z"/>
<path fill="#000000" opacity="1.000000" stroke="none" 
	d="
M308.134338,72.101250 
	C299.417267,66.101799 291.117310,60.620712 280.890472,57.388157 
	C271.394928,54.386765 261.857666,53.120773 252.300003,52.355785 
	C245.082153,51.778069 237.610596,53.810242 230.311081,55.033611 
	C226.266891,55.711403 222.294571,56.961346 218.380981,58.233673 
	C214.657333,59.444252 212.955292,62.370850 213.055191,66.191277 
	C213.078064,67.065651 214.056396,67.915054 214.839661,69.167023 
	C208.614441,69.443245 202.396301,69.772995 196.174042,69.976265 
	C192.038696,70.111359 189.707520,68.548523 189.930786,63.836697 
	C190.220367,57.725121 190.001480,51.589451 190.001480,44.651054 
	C191.521759,45.636395 192.512314,46.076691 193.241074,46.785957 
	C196.245651,49.710175 198.993271,51.543446 202.720718,47.395905 
	C203.900238,46.083466 206.757751,46.414879 208.697433,45.625561 
	C215.868576,42.707401 223.321274,40.830482 230.735001,38.680466 
	C244.313721,34.742580 257.582550,35.405396 270.958710,38.094231 
	C278.182678,39.546368 285.456299,41.463219 292.204712,44.347076 
	C297.741669,46.713234 302.667114,50.634834 307.627197,54.196224 
	C314.593140,59.197803 322.243347,63.674232 327.954468,69.888405 
	C335.263428,77.841194 342.645966,86.040321 346.263580,96.843346 
	C348.891998,104.692497 353.813293,111.856720 355.852264,119.803566 
	C360.466064,137.785873 360.732941,156.077316 354.876801,173.927292 
	C352.534027,181.068237 348.821777,187.759903 345.279938,195.667313 
	C342.003906,192.077530 339.056427,189.128571 336.495422,185.875381 
	C335.696869,184.860977 335.332550,182.778625 335.805634,181.601608 
	C340.516968,169.879364 342.517456,157.599442 342.815521,145.118652 
	C342.967163,138.767471 341.925812,132.315186 340.777405,126.026634 
	C339.696533,120.108086 338.567810,113.963730 336.020081,108.603127 
	C332.293121,100.761299 327.810364,93.137733 322.643097,86.167358 
	C318.733337,80.893318 313.250458,76.785446 308.134338,72.101250 
z"/>
<path fill="#000000" opacity="1.000000" stroke="none" 
	d="
M158.811615,417.390381 
	C157.957687,418.475708 157.017639,419.126068 156.601532,420.020233 
	C154.588638,424.345978 150.471893,427.184662 145.496078,425.710052 
	C142.906967,424.942749 139.666077,421.458435 139.323105,418.858063 
	C137.610443,405.873169 142.030869,394.856384 151.981750,385.620087 
	C155.258926,390.494019 156.550934,396.257538 162.084641,399.012848 
	C163.100067,399.518433 163.223465,403.062256 162.785950,404.982025 
	C161.850311,409.087494 160.278305,413.047913 158.811615,417.390381 
z"/>
<path fill="#000000" opacity="1.000000" stroke="none" 
	d="
M229.807205,120.950790 
	C230.750870,119.648834 231.622787,117.330963 232.653259,117.258186 
	C234.744614,117.110497 237.080994,117.852432 239.031342,118.808876 
	C243.518295,121.009247 247.915771,123.422737 252.198090,126.001312 
	C256.755280,128.745407 261.117584,131.811417 265.612915,134.661301 
	C266.566406,135.265762 267.782928,135.441467 268.782898,135.988876 
	C273.734283,138.699402 278.832306,141.208130 283.465729,144.389420 
	C284.711151,145.244507 285.417786,148.606995 284.758331,150.111053 
	C283.762878,152.381439 281.657837,154.544174 279.481995,155.846588 
	C273.145599,159.639389 266.491608,162.896606 260.054993,166.528412 
	C254.722748,169.537109 249.620071,172.961945 244.227005,175.850113 
	C240.990448,177.583389 237.467148,178.958084 233.908646,179.802521 
	C232.879166,180.046799 231.281494,177.896667 229.959351,175.979370 
	C229.918671,157.059952 229.862946,139.005371 229.807205,120.950790 
z"/>
<path fill="#000000" opacity="1.000000" stroke="none" 
	d="
M228.985153,175.874374 
	C228.664444,175.190994 228.063034,174.507172 228.064087,173.824280 
	C228.090851,156.401779 228.180649,138.979370 228.624451,121.799232 
	C228.988037,139.985809 228.986603,157.930084 228.985153,175.874374 
z"/>
<path fill="#00FA05" opacity="1.000000" stroke="none" 
	d="
M229.191040,175.916321 
	C228.986603,157.930084 228.988037,139.985809 228.987946,121.583183 
	C228.986404,121.124847 229.397644,121.041679 229.602417,120.996239 
	C229.862946,139.005371 229.918671,157.059952 229.890808,175.581894 
	C229.807205,176.049255 229.396942,175.958267 229.191040,175.916321 
z"/>
<path fill="#000000" opacity="1.000000" stroke="none" 
	d="
M292.523804,404.708954 
	C293.069733,403.684723 293.215210,402.761841 293.645691,402.000061 
	C298.033264,394.235992 300.317444,394.089539 305.723511,401.271759 
	C306.975220,402.934692 308.045746,404.741180 309.119019,406.529968 
	C313.008209,413.011810 309.642609,416.090363 302.011902,420.966949 
	C300.680756,421.817688 299.063599,422.308411 297.912384,423.338562 
	C291.935425,428.686859 290.992676,428.078156 284.634857,423.748260 
	C282.949921,422.600739 281.461975,421.164001 279.556091,419.589478 
	C281.316437,417.345428 281.994324,413.918915 286.904053,415.786896 
	C294.589661,418.711090 295.580261,417.893616 297.920837,409.363068 
	C296.465118,408.901306 294.808502,408.688965 293.557831,407.862427 
	C292.799225,407.361084 292.668488,405.909668 292.523804,404.708954 
z"/>
<path fill="#000000" opacity="1.000000" stroke="none" 
	d="
M308.024414,358.941284 
	C307.521210,364.654053 302.523224,371.792908 298.480652,372.774017 
	C297.140533,366.372803 297.430115,360.555542 303.257385,356.207520 
	C306.297943,353.938751 307.386322,354.419220 308.024414,358.941284 
z"/>
<path fill="#000000" opacity="1.000000" stroke="none" 
	d="
M86.079826,416.055481 
	C86.762970,413.118805 87.226639,410.533020 88.062508,408.073700 
	C89.422691,404.071777 90.198105,399.500977 92.693573,396.329468 
	C98.501656,388.947876 99.372368,389.364532 109.499023,385.848114 
	C109.645706,389.441223 110.776299,393.096527 109.730988,395.956482 
	C106.350029,405.206818 102.405258,414.276550 98.187454,423.183685 
	C96.362869,427.036865 92.852379,427.057617 90.273666,423.671600 
	C88.595879,421.468628 87.425308,418.879364 86.079826,416.055481 
z"/>
</svg>